<svg id="Layer_1" data-name="Layer 1" xmlns="http://www.w3.org/2000/svg" viewBox="0 0 1231.65 635.89"><defs><style>.cls-1{fill:#fff;}.cls-2{fill:#0168ff;}.cls-3{fill:#005be1;}.cls-4{fill:#f2f2f2;}</style></defs><rect class="cls-1" x="1.29" y="0.93" width="1232.78" height="634.9"/><polygon points="945.19 42.19 926.14 42.19 926.14 61.24 945.19 61.24 964.23 61.24 964.23 42.19 945.19 42.19"/><rect x="1002.33" y="42.19" width="19.05" height="19.05"/><path d="M1173.75,42.19H1059.47V175.52H1192.8V42.19Zm0,38.1v76.18h-95.24V61.24h95.24Z"/><rect x="964.23" y="61.24" width="19.05" height="19.05"/><polygon points="869 80.29 888.05 80.29 888.05 61.24 869 61.24 849.95 61.24 849.95 80.29 830.9 80.29 830.9 61.24 830.9 42.19 811.86 42.19 811.86 61.24 792.81 61.24 792.81 80.29 811.86 80.29 811.86 99.33 792.81 99.33 792.81 118.38 811.86 118.38 830.9 118.38 830.9 99.33 849.95 99.33 849.95 118.38 869 118.38 869 99.33 869 80.29"/><rect x="907.09" y="80.29" width="19.05" height="19.05"/><rect x="945.19" y="80.29" width="19.05" height="19.05"/><polygon points="1116.61 80.29 1097.56 80.29 1097.56 99.33 1097.56 118.38 1097.56 137.43 1116.61 137.43 1135.65 137.43 1154.7 137.43 1154.7 118.38 1154.7 99.33 1154.7 80.29 1135.65 80.29 1116.61 80.29"/><polygon points="1040.42 118.38 1040.42 99.33 1021.37 99.33 1002.33 99.33 1002.33 80.29 983.28 80.29 983.28 99.33 964.23 99.33 964.23 118.38 983.28 118.38 1002.33 118.38 1002.33 137.43 1021.37 137.43 1021.37 118.38 1040.42 118.38"/><polygon points="716.62 137.43 735.67 137.43 735.67 118.38 735.67 99.33 735.67 80.29 716.62 80.29 697.58 80.29 678.53 80.29 678.53 99.33 678.53 118.38 678.53 137.43 697.58 137.43 716.62 137.43"/><polygon points="830.9 137.43 830.9 156.47 830.9 175.52 849.95 175.52 849.95 156.47 849.95 137.43 849.95 118.38 830.9 118.38 830.9 137.43"/><path d="M678.53,175.52h95.23V42.19H640.44V175.52h38.09Zm-19-38.09V61.24h95.24v95.23H659.48Z"/><polygon points="811.86 156.47 811.86 137.43 792.81 137.43 792.81 156.47 792.81 175.52 811.86 175.52 811.86 156.47"/><polygon points="907.09 175.52 926.14 175.52 926.14 156.47 945.19 156.47 945.19 137.43 945.19 118.38 926.14 118.38 907.09 118.38 888.05 118.38 869 118.38 869 137.43 888.05 137.43 888.05 156.47 907.09 156.47 907.09 175.52"/><polygon points="888.05 175.52 888.05 156.47 869 156.47 869 175.52 869 194.57 869 213.62 888.05 213.62 888.05 194.57 907.09 194.57 907.09 175.52 888.05 175.52"/><polygon points="1021.37 194.57 1021.37 213.62 1040.42 213.62 1040.42 232.66 1059.47 232.66 1059.47 251.71 1040.42 251.71 1040.42 270.76 1059.47 270.76 1078.52 270.76 1097.56 270.76 1097.56 251.71 1097.56 232.66 1078.52 232.66 1078.52 213.62 1059.47 213.62 1059.47 194.57 1040.42 194.57 1040.42 175.52 1040.42 156.47 1040.42 137.43 1021.37 137.43 1021.37 156.47 1021.37 175.52 1002.33 175.52 1002.33 156.47 983.28 156.47 983.28 175.52 983.28 194.57 964.23 194.57 964.23 175.52 964.23 156.47 945.19 156.47 945.19 175.52 926.14 175.52 926.14 194.57 907.09 194.57 907.09 213.62 926.14 213.62 945.19 213.62 964.23 213.62 983.28 213.62 1002.33 213.62 1002.33 194.57 1021.37 194.57"/><polygon points="716.62 213.62 735.67 213.62 735.67 194.57 716.62 194.57 697.58 194.57 678.53 194.57 659.48 194.57 640.44 194.57 640.44 213.62 659.48 213.62 678.53 213.62 678.53 232.66 697.58 232.66 697.58 213.62 716.62 213.62"/><rect x="1078.51" y="194.57" width="19.05" height="19.05"/><rect x="1116.61" y="194.57" width="19.05" height="19.05"/><rect x="1154.7" y="194.57" width="19.05" height="19.05"/><rect x="1002.33" y="213.62" width="19.05" height="19.05"/><rect x="1097.56" y="213.62" width="19.05" height="19.05"/><rect x="1173.75" y="213.62" width="19.05" height="19.05"/><polygon points="754.72 232.66 754.72 213.62 735.67 213.62 735.67 232.66 716.62 232.66 697.58 232.66 697.58 251.71 716.62 251.71 716.62 270.76 697.58 270.76 678.53 270.76 678.53 289.8 659.48 289.8 659.48 308.85 678.53 308.85 697.58 308.85 697.58 289.8 716.62 289.8 716.62 308.85 735.67 308.85 735.67 327.9 754.72 327.9 773.76 327.9 773.76 346.94 792.81 346.94 792.81 327.9 792.81 308.85 773.76 308.85 754.72 308.85 754.72 289.8 773.76 289.8 773.76 270.76 754.72 270.76 754.72 251.71 773.76 251.71 792.81 251.71 792.81 232.66 773.76 232.66 754.72 232.66"/><polygon points="945.19 232.66 926.14 232.66 926.14 251.71 907.09 251.71 907.09 270.76 926.14 270.76 945.19 270.76 945.19 251.71 945.19 232.66"/><rect x="659.48" y="251.71" width="19.05" height="19.05"/><polygon points="869 251.71 888.05 251.71 888.05 232.66 869 232.66 849.95 232.66 849.95 251.71 830.9 251.71 830.9 232.66 830.9 213.62 849.95 213.62 849.95 194.57 830.9 194.57 811.86 194.57 792.81 194.57 773.76 194.57 754.72 194.57 754.72 213.62 773.76 213.62 792.81 213.62 792.81 232.66 811.86 232.66 811.86 251.71 811.86 270.76 792.81 270.76 792.81 289.8 811.86 289.8 811.86 308.85 811.86 327.9 830.9 327.9 830.9 308.85 849.95 308.85 849.95 289.8 830.9 289.8 830.9 270.76 849.95 270.76 849.95 289.8 869 289.8 869 270.76 869 251.71"/><rect x="1154.7" y="251.71" width="19.05" height="19.05"/><polygon points="1154.7 289.8 1154.7 270.76 1135.65 270.76 1135.65 251.71 1116.61 251.71 1116.61 270.76 1116.61 289.8 1135.65 289.8 1154.7 289.8"/><polygon points="1021.37 289.8 1040.42 289.8 1040.42 270.76 1021.37 270.76 1002.33 270.76 1002.33 251.71 1002.33 232.66 983.28 232.66 983.28 251.71 983.28 270.76 964.23 270.76 945.19 270.76 945.19 289.8 964.23 289.8 983.28 289.8 1002.33 289.8 1002.33 308.85 1021.37 308.85 1021.37 289.8"/><polygon points="1059.47 308.85 1059.47 327.9 1078.52 327.9 1078.52 308.85 1097.56 308.85 1097.56 327.9 1116.61 327.9 1135.65 327.9 1154.7 327.9 1154.7 308.85 1135.65 308.85 1116.61 308.85 1116.61 289.8 1097.56 289.8 1078.52 289.8 1059.47 289.8 1040.42 289.8 1040.42 308.85 1059.47 308.85"/><rect x="1173.75" y="289.8" width="19.05" height="19.05"/><polygon points="697.58 327.9 678.53 327.9 678.53 346.94 697.58 346.94 716.62 346.94 716.62 327.9 716.62 308.85 697.58 308.85 697.58 327.9"/><polygon points="964.23 327.9 983.28 327.9 1002.33 327.9 1002.33 308.85 983.28 308.85 964.23 308.85 945.19 308.85 926.14 308.85 926.14 289.8 907.09 289.8 888.05 289.8 869 289.8 869 308.85 888.05 308.85 888.05 327.9 869 327.9 869 346.94 869 365.99 888.05 365.99 888.05 346.94 907.09 346.94 907.09 327.9 926.14 327.9 926.14 346.94 945.19 346.94 945.19 327.9 964.23 327.9"/><rect x="830.91" y="327.9" width="19.05" height="19.05"/><rect x="1078.51" y="327.9" width="19.05" height="19.05"/><rect x="1154.7" y="327.9" width="19.05" height="19.05"/><polygon points="659.48 365.99 640.44 365.99 640.44 385.04 640.44 404.08 640.44 423.13 640.44 442.18 659.48 442.18 659.48 423.13 659.48 404.08 659.48 385.04 678.53 385.04 678.53 365.99 678.53 346.94 659.48 346.94 659.48 365.99"/><polygon points="735.67 346.94 735.67 365.99 754.72 365.99 773.76 365.99 773.76 346.94 754.72 346.94 735.67 346.94"/><rect x="907.09" y="346.94" width="19.05" height="19.05"/><rect x="1021.37" y="346.94" width="19.05" height="19.05"/><polygon points="1116.61 346.94 1116.61 365.99 1135.65 365.99 1135.65 385.04 1135.65 404.08 1154.7 404.08 1154.7 385.04 1154.7 365.99 1154.7 346.94 1135.65 346.94 1116.61 346.94"/><polygon points="697.58 365.99 697.58 385.04 716.62 385.04 735.67 385.04 735.67 365.99 716.62 365.99 697.58 365.99"/><rect x="792.81" y="365.99" width="19.05" height="19.05"/><rect x="830.91" y="365.99" width="19.05" height="19.05"/><polygon points="983.28 365.99 1002.33 365.99 1002.33 346.94 983.28 346.94 964.23 346.94 945.19 346.94 945.19 365.99 964.23 365.99 964.23 385.04 983.28 385.04 983.28 365.99"/><rect x="1002.33" y="365.99" width="19.05" height="19.05"/><rect x="1173.75" y="365.99" width="19.05" height="19.05"/><polygon points="792.81 385.04 773.76 385.04 754.72 385.04 754.72 404.08 773.76 404.08 773.76 423.13 792.81 423.13 811.86 423.13 811.86 404.08 792.81 404.08 792.81 385.04"/><rect x="811.86" y="385.04" width="19.05" height="19.05"/><rect x="1021.37" y="385.04" width="19.05" height="19.05"/><polygon points="697.58 404.08 678.53 404.08 678.53 423.13 678.53 442.18 697.58 442.18 716.62 442.18 716.62 423.13 697.58 423.13 697.58 404.08"/><rect x="716.62" y="404.08" width="19.05" height="19.05"/><polygon points="869 404.08 888.05 404.08 888.05 385.04 869 385.04 849.95 385.04 849.95 404.08 849.95 423.13 849.95 442.18 869 442.18 869 423.13 869 404.08"/><path d="M1173.75,404.08h-19v19.05h-19v19.05h-19.05V366h-76.19V385h38.09v19h19v19.05h-76.19v19.05h-19v19h-38.1v19h19v19.05h-19V480.27h-19v-19H926.14v-19H869v19h19v19H869v38.1h19V499.32h19V480.27h19v19.05h-19v19.05h57.14v19h19v-19h19.05v-38.1h19v38.1h19.05v38.09h19v38.09h19V556.46h38.1v38.09h38.09v-19h-19v-19h19v19h19v-38.1h19v-19h-19V499.32h-38.09v19.05h-19.05v19h-57.14v-19h57.14v-38.1h38.09v-19h38.1V423.13h-19Zm-76.19,95.24h-57.14V442.18h57.14v57.14Z"/><polygon points="735.67 423.13 735.67 442.18 754.72 442.18 773.76 442.18 773.76 423.13 754.72 423.13 735.67 423.13"/><polygon points="964.23 442.18 983.28 442.18 1002.33 442.18 1002.33 423.13 1002.33 404.08 1002.33 385.04 983.28 385.04 983.28 404.08 983.28 423.13 964.23 423.13 964.23 404.08 964.23 385.04 945.19 385.04 926.14 385.04 926.14 404.08 907.09 404.08 907.09 423.13 926.14 423.13 926.14 442.18 945.19 442.18 964.23 442.18"/><path d="M735.67,461.22H640.44V594.55H773.76V461.22H735.67Zm19.05,38.1v76.19H659.48V480.27h95.24Z"/><rect x="1059.47" y="461.22" width="19.05" height="19.05"/><rect x="1173.75" y="480.27" width="19.05" height="19.05"/><polygon points="697.58 499.32 678.53 499.32 678.53 518.37 678.53 537.41 678.53 556.46 697.58 556.46 716.62 556.46 735.67 556.46 735.67 537.41 735.67 518.37 735.67 499.32 716.62 499.32 697.58 499.32"/><polygon points="849.95 537.41 849.95 556.46 830.9 556.46 811.86 556.46 811.86 537.41 811.86 518.37 830.9 518.37 830.9 537.41 849.95 537.41 849.95 518.37 849.95 499.32 830.9 499.32 830.9 480.27 849.95 480.27 849.95 461.23 830.9 461.23 811.86 461.23 811.86 442.18 792.81 442.18 792.81 461.23 792.81 480.27 811.86 480.27 811.86 499.32 792.81 499.32 792.81 518.37 792.81 537.41 792.81 556.46 792.81 575.51 792.81 594.55 811.86 594.55 811.86 575.51 830.9 575.51 830.9 594.55 849.95 594.55 869 594.55 869 575.51 869 556.46 888.05 556.46 888.05 537.41 869 537.41 849.95 537.41"/><polygon points="1021.37 537.41 1002.33 537.41 983.28 537.41 983.28 556.46 1002.33 556.46 1002.33 575.51 1021.37 575.51 1040.42 575.51 1040.42 556.46 1021.37 556.46 1021.37 537.41"/><polygon points="964.23 575.51 964.23 556.46 964.23 537.41 945.19 537.41 926.14 537.41 926.14 556.46 907.09 556.46 907.09 575.51 926.14 575.51 926.14 594.55 945.19 594.55 964.23 594.55 983.28 594.55 1002.33 594.55 1002.33 575.51 983.28 575.51 964.23 575.51"/><path class="cls-2" d="M131.76,514.91c11-13,18.08-27.77,19.65-44.89.8-8.65-.62-16.54-6-24-14.83-20.62-25.62-43.43-33.74-67.42a369.27,369.27,0,0,1-18.88-138.7c2.08-40.37,9.88-79.46,25.8-116.74,13.22-31,31.33-58.47,56.61-80.81h-9.63A119.42,119.42,0,0,0,46.15,161.76V475.13A119.42,119.42,0,0,0,165.57,594.55h34.89L131.29,521C128,518.7,130.15,516.8,131.76,514.91Z"/><path class="cls-2" d="M170.93,250.8c21.42-.12,42.84-.07,64.26-.06,1.7,0,3.44-.25,5.54.59-.82,1.11-1.4,1.95-2,2.74q-34.16,42.54-68.38,85a27.06,27.06,0,0,0-6.42,18.42c.06,3.1.76,4.05,4,4,31.44-.13,62.88-.07,94.32-.07.92,0,1.85,0,2.76-.08,5.68-.53,9-3.94,9.25-9.67.12-2.64-.18-5.32.1-7.93.36-3.27-.9-4-4-4-23.15.12-46.29.07-69.44.05-1.2,0-2.49.37-3.93-.59.76-1,1.46-2,2.21-3q9.65-12.19,19.31-24.35c16.25-20.47,32.36-41,48.81-61.34a31.19,31.19,0,0,0,7-20.38c0-2-.61-2.56-2.57-2.56q-51,.08-101.91,0c-2.16,0-2.75.71-2.71,2.78.12,5.52.23,11.06,0,16.57C166.9,250.14,168,250.82,170.93,250.8Z"/><path class="cls-2" d="M321.38,360.62c14.9,3.27,28.5-.12,41.1-8.41,2,7.28,4.64,9.23,12.16,9.27,2.19,0,4.39-.13,6.56,0,2.43.19,3.15-.74,3.12-3.14-.12-9.33-.05-18.66-.05-28,0-22.23,0-44.46.05-66.69,0-2.59-.48-3.75-3.38-3.55-3.9.27-7.83.07-11.75.07-6,0-6,0-6.41,6,0,.16-.25.31-.56.66-11.19-7.58-23.5-10.86-37-9a50.27,50.27,0,0,0-33.4,19,52,52,0,0,0-.74,64.65A51.45,51.45,0,0,0,321.38,360.62Zm10.73-81.75a30.72,30.72,0,1,1-30.39,30.66A30.69,30.69,0,0,1,332.11,278.87Z"/><path class="cls-2" d="M493,362.46a53,53,0,0,0,53-52.92c-.06-29.11-23.75-52.88-52.7-52.86a53.05,53.05,0,0,0-52.7,52.91C440.65,338.46,464.44,362.46,493,362.46Zm.35-83.84a31,31,0,1,1-30.92,30.92A30.61,30.61,0,0,1,493.37,278.62Z"/><path class="cls-2" d="M402.57,238.8q0,56.47,0,113c0,6.89,2.78,9.66,9.6,9.72,3.22,0,6.46-.17,9.67,0,2.79.19,3.71-.59,3.69-3.57-.13-21.3-.07-42.61-.07-63.91q0-32.3,0-64.59c0-1.47.69-3.33-2.1-3.28-6.22.13-12.44.09-18.66,0-1.68,0-2.19.63-2.15,2.24C402.63,231.89,402.57,235.34,402.57,238.8Z"/><path class="cls-3" d="M597.05,492.88q-6.56,4.75-13.46,9.09c-38.64,24.17-81.11,37.67-125.78,44.87a417.89,417.89,0,0,1-118,2.18c-46-5.66-89.75-18.08-129.77-42a4,4,0,0,0-4.14-.31C182.14,517.29,157.46,523,131.29,521l69.17,73.54H478.94A119.46,119.46,0,0,0,597.05,492.88Z"/><path class="cls-4" d="M332.39,340.3a30.72,30.72,0,1,0-30.67-30.77A30.78,30.78,0,0,0,332.39,340.3Z"/><path class="cls-4" d="M478.94,42.34H175.2c-25.28,22.34-43.39,49.85-56.61,80.81-15.92,37.28-23.72,76.37-25.8,116.74a369.27,369.27,0,0,0,18.88,138.7c8.12,24,18.91,46.8,33.74,67.42,5.38,7.47,6.8,15.36,6,24-1.57,17.12-8.61,31.89-19.65,44.89-1.61,1.89-3.77,3.79-.47,6.1,26.17,2,50.85-3.72,74.58-14.35A4,4,0,0,1,210,507c40,24,83.81,36.39,129.77,42a417.89,417.89,0,0,0,118-2.18c44.67-7.2,87.14-20.7,125.78-44.87q6.92-4.34,13.46-9.09a120.89,120.89,0,0,0,1.31-17.75V161.76A119.42,119.42,0,0,0,478.94,42.34Zm14.38,214.34c28.95,0,52.64,23.75,52.7,52.86a53,53,0,0,1-53,52.92c-28.58,0-52.37-24-52.4-52.87A53.05,53.05,0,0,1,493.32,256.68ZM404.7,226.2c6.22.07,12.44.11,18.66,0,2.79-.05,2.09,1.81,2.1,3.28q0,32.29,0,64.59c0,21.3-.06,42.61.07,63.91,0,3-.9,3.76-3.69,3.57-3.21-.22-6.45,0-9.67,0-6.82-.06-9.59-2.83-9.6-9.72q0-56.49,0-113c0-3.46.06-6.91,0-10.36C402.51,226.83,403,226.18,404.7,226.2ZM291.84,276.79a50.27,50.27,0,0,1,33.4-19c13.48-1.88,25.79,1.4,37,9,.31-.35.55-.5.56-.66.37-6,.37-6,6.41-6,3.92,0,7.85.2,11.75-.07,2.9-.2,3.39,1,3.38,3.55-.09,22.23-.05,44.46-.05,66.69,0,9.33-.07,18.66.05,28,0,2.4-.69,3.33-3.12,3.14-2.17-.16-4.37,0-6.56,0-7.52,0-10.12-2-12.16-9.27-12.6,8.29-26.2,11.68-41.1,8.41a51.45,51.45,0,0,1-30.28-19.18A52,52,0,0,1,291.84,276.79ZM170.31,339.1q34.33-42.39,68.38-85c.64-.79,1.22-1.63,2-2.74-2.1-.84-3.84-.59-5.54-.59-21.42,0-42.84-.06-64.26.06-3,0-4-.66-3.88-3.8.27-5.51.16-11.05,0-16.57,0-2.07.55-2.78,2.71-2.78q51,.09,101.91,0c2,0,2.58.6,2.57,2.56a31.19,31.19,0,0,1-7,20.38c-16.45,20.3-32.56,40.87-48.81,61.34q-9.66,12.17-19.31,24.35c-.75.95-1.45,1.95-2.21,3,1.44,1,2.73.58,3.93.59,23.15,0,46.29.07,69.44-.05,3.12,0,4.38.73,4,4-.28,2.61,0,5.29-.1,7.93-.26,5.73-3.57,9.14-9.25,9.67-.91.09-1.84.08-2.76.08-31.44,0-62.88-.06-94.32.07-3.23,0-3.93-.94-4-4A27.06,27.06,0,0,1,170.31,339.1Z"/><path class="cls-4" d="M493.31,340.56a31,31,0,1,0-30.86-31A30.69,30.69,0,0,0,493.31,340.56Z"/></svg>